<svg id="svg2" xmlns="http://www.w3.org/2000/svg" height="194.72" width="153.54"><defs id="defs4"><radialGradient id="radialGradient7757" gradientUnits="userSpaceOnUse" cy="133.64" cx="368" gradientTransform="matrix(1 0 0 1.08583 0 -11.47)" r="102.55"><stop id="stop7109" stop-color="#87cdde" offset="0"/><stop id="stop7111" stop-color="#87cdde" stop-opacity="0" offset="1"/></radialGradient><radialGradient id="radialGradient7759" gradientUnits="userSpaceOnUse" cy="133.64" cx="368" gradientTransform="matrix(1 0 0 1.08583 0 -11.47)" r="102.55"><stop id="stop6333" stop-color="#04bafb" stop-opacity="0" offset="0"/><stop id="stop6335" stop-color="#bdd7fd" offset="1"/></radialGradient><linearGradient id="linearGradient7763" y2="245.27" gradientUnits="userSpaceOnUse" x2="406.5" y1="245.27" x1="328.85"><stop id="stop7061" stop-color="#87cdde" offset="0"/><stop id="stop7063" stop-color="#87cdde" stop-opacity="0" offset="1"/></linearGradient><linearGradient id="linearGradient7765" y2="252.28" gradientUnits="userSpaceOnUse" x2="406.15" y1="252.28" x1="330.49"><stop id="stop7069" stop-color="#87cdde" offset="0"/><stop id="stop7071" stop-color="#87cdde" stop-opacity="0" offset="1"/></linearGradient><linearGradient id="linearGradient7767" y2="259.87" gradientUnits="userSpaceOnUse" x2="403.82" y1="259.87" x1="331.89"><stop id="stop7077" stop-color="#87cdde" offset="0"/><stop id="stop7079" stop-color="#87cdde" stop-opacity="0" offset="1"/></linearGradient><linearGradient id="linearGradient7769" y2="267.23" gradientUnits="userSpaceOnUse" x2="403.35" y1="267.23" x1="333.29"><stop id="stop7085" stop-color="#87cdde" offset="0"/><stop id="stop7087" stop-color="#87cdde" stop-opacity="0" offset="1"/></linearGradient><linearGradient id="linearGradient7771" y2="274.36" gradientUnits="userSpaceOnUse" x2="404.05" y1="274.36" x1="334.23"><stop id="stop7093" stop-color="#87cdde" offset="0"/><stop id="stop7095" stop-color="#87cdde" stop-opacity="0" offset="1"/></linearGradient><linearGradient id="linearGradient7773" y2="280.32" gradientUnits="userSpaceOnUse" x2="401.36" y1="280.32" x1="334.93"><stop id="stop7101" stop-color="#87cdde" offset="0"/><stop id="stop7103" stop-color="#87cdde" stop-opacity="0" offset="1"/></linearGradient><radialGradient id="radialGradient7775" gradientUnits="userSpaceOnUse" cy="426.58" cx="531.18" gradientTransform="matrix(-.32127 .25608 -.09055 -.11265 537.232 14.404)" r="68.379"><stop id="stop6504" stop-color="#FFF" stop-opacity=".559" offset="0"/><stop id="stop6506" stop-color="#FFF" stop-opacity="0" offset="1"/></radialGradient><radialGradient id="radialGradient7777" gradientUnits="userSpaceOnUse" cy="426.58" cx="531.18" gradientTransform="matrix(-.79353 .57038 -.26885 -.16525 860.554 -161.48)" r="68.379"><stop id="stop6504-1" stop-color="#FFF" stop-opacity=".559" offset="0"/><stop id="stop6506-8" stop-color="#FFF" stop-opacity="0" offset="1"/></radialGradient><filter id="filter3032" height="1" width="1" color-interpolation-filters="sRGB" y="0" x="0"><feColorMatrix id="feColorMatrix3034" values="0" type="saturate"/></filter></defs><g id="g6514" filter="url(#filter3032)" transform="translate(-16.83 -7.07)"><g id="g7737"><g id="g6860"><path id="path3171" d="M126.81 200.993c-.052.387-.113.79-.113.796.012-.016.026-.024.038-.04 0 0 .073-.724.075-.757z" fill="#CCC"/><path id="path2993" opacity=".875" d="M366.77 23.29c-60.11 0-100.74 50.734-100.31 107.81.37 49.257 48.18 82.61 59.094 104.81l-.03-.093s1.543.557 4.124 1.375 6.213 1.908 10.344 2.97c4.13 1.06 8.757 2.082 13.406 2.812 2.324.364 4.645.67 6.906.843 2.26.174 4.463.214 6.53.125 4.138-.178 8.76-.76 13.376-1.53 4.616-.772 9.227-1.718 13.312-2.657 8.066-1.853 13.94-3.58 14.094-3.625 11.487-22.082 61.748-49.797 61.938-105.03.21-58.58-37.94-107.8-102.77-107.8z" stroke="url(#radialGradient7759)" stroke-width="2" fill="url(#radialGradient7757)" transform="matrix(.60425 0 0 .6064 -113.957 19.088)"/><path id="path6624" d="M132.728 162.653c-.094.02-3.67.796-8.583 1.63-2.488.42-5.296.846-8.106 1.192-2.812.346-5.627.608-8.146.688-1.26.04-2.6.022-3.977-.056a72.553 72.553 0 0 1-4.206-.38c-2.83-.327-5.648-.786-8.163-1.263a153.87 153.87 0 0 1-6.3-1.334c-1.57-.367-2.51-.617-2.51-.617l.018.042c.092.138.222.285.305.42.2.33.397.72.59 1.162.19.443 1.606.967 1.78 1.478.172.512-.86 1.123-.686 1.743.173.62 1.568 1.312 1.722 1.957.154.645-.898 1.39-.746 2.115.152.727 1.525 1.517 1.658 2.23.134.71-.94 1.514-.81 2.28.13.764 1.478 1.578 1.59 2.29.11.714-.99 1.504-.884 2.238.106.733 1.43 1.498 1.516 2.148.088.65-1.038 1.353-.958 1.986.08.632 1.375 1.272 1.437 1.794.06.522-1.093 1.065-1.04 1.528.05.463 1.317.902 1.352 1.232.036.33-1.15.64-1.126.864.023.224.04.38.046.457.046.28.115.66.115.66s3.176.91 7.155 1.81c1.99.452 4.172.897 6.26 1.237a53.98 53.98 0 0 0 3.027.42c.956.1 1.848.154 2.644.155.795 0 1.688-.058 2.645-.155a53.67 53.67 0 0 0 3.025-.407 104.79 104.79 0 0 0 6.26-1.222c3.97-.892 7.14-1.792 7.156-1.797l.02-.015c0-.003.06-.303.114-.59l.04-.42c.02-.212-1.167-.522-1.134-.845.033-.323 1.295-.747 1.345-1.206.05-.46-1.108-1.01-1.05-1.532.06-.52 1.353-1.15 1.43-1.784.078-.634-1.05-1.35-.964-2.004.087-.654 1.408-1.412 1.513-2.15.105-.74-.995-1.544-.884-2.263.11-.72 1.46-1.532 1.59-2.304.132-.772-.94-1.59-.805-2.308.136-.72 1.512-1.512 1.67-2.246.156-.734-.89-1.49-.73-2.14.16-.652 1.562-1.35 1.743-1.976.18-.625-.84-1.247-.656-1.76.185-.514 1.61-1.045 1.816-1.49a8.96 8.96 0 0 1 .633-1.17c.07-.105.174-.217.248-.323z" fill="#afdde9"/><path id="path6572" d="M329.75 241.89c8.794 2.958 32.448 4.447 36.864 4.25 8.566.908 33.927-2.01 39.89-3.848v.05s0-.03-.002.052c-7.41 4.763-35.294 6.77-40.106 6.143-4.25 0-37.543-2.24-37.543-5 .222-.445.248-.632.896-1.647z" fill="url(#linearGradient7763)" fill-rule="evenodd" transform="matrix(.60425 0 0 .6064 -113.957 19.088)"/><path id="path6572-5" d="M331.36 248.9c8.57 2.958 31.618 4.447 35.92 4.25 8.348.908 33.06-2.01 38.87-3.848V249.404c-7.223 4.763-34.392 6.77-39.08 6.143-4.142 0-36.583-2.24-36.583-5 .216-.445.242-.632.874-1.647z" fill="url(#linearGradient7765)" fill-rule="evenodd" transform="matrix(.60425 0 0 .6064 -113.957 19.088)"/><path id="path6572-9" d="M332.72 256.49c8.146 2.958 30.056 4.447 34.146 4.25 7.935.908 31.425-2.01 36.948-3.848V256.995c-6.866 4.762-32.693 6.77-37.15 6.143-3.936 0-34.775-2.24-34.775-5 .204-.446.23-.633.83-1.648z" fill="url(#linearGradient7767)" fill-rule="evenodd" transform="matrix(.60425 0 0 .6064 -113.957 19.088)"/><path id="path6572-7" d="M334.1 263.85c7.934 2.958 29.275 4.447 33.258 4.25 7.728.908 30.61-2.01 35.988-3.848V264.355c-6.687 4.762-31.843 6.77-36.184 6.143-3.834 0-33.87-2.24-33.87-5 .2-.446.223-.633.808-1.648z" fill="url(#linearGradient7769)" fill-rule="evenodd" transform="matrix(.60425 0 0 .6064 -113.957 19.088)"/><path id="path6572-0" d="M335.03 270.98c7.908 2.958 29.177 4.447 33.147 4.25 7.703.908 30.506-2.01 35.868-3.848V271.485c-6.665 4.762-31.737 6.77-36.064 6.143-3.82 0-33.757-2.24-33.757-5 .2-.446.223-.633.806-1.648z" fill="url(#linearGradient7771)" fill-rule="evenodd" transform="matrix(.60425 0 0 .6064 -113.957 19.088)"/><path id="path6572-57" d="M335.7 276.94c7.524 2.958 27.76 4.447 31.54 4.25 7.328.908 29.025-2.01 34.126-3.848V277.445c-6.342 4.762-30.197 6.77-34.314 6.143-3.636 0-32.12-2.24-32.12-5 .19-.446.212-.633.767-1.648z" fill="url(#linearGradient7773)" fill-rule="evenodd" transform="matrix(.60425 0 0 .6064 -113.957 19.088)"/><path id="path3173" d="M127.036 191.063c-.015.004-3.187.91-7.157 1.804-1.99.45-4.175.89-6.264 1.227-1.045.168-2.07.31-3.027.41-.96.096-1.85.155-2.647.154-.796 0-1.69-.056-2.646-.155-.958-.1-1.982-.253-3.027-.423-2.09-.34-4.273-.788-6.263-1.24-3.98-.907-7.157-1.82-7.157-1.82s-.07-.382-.114-.662c.003.038.095.705.095.705 5.762 7.85 19.242 9.684 19.227 9.53 0 0 8.656-.27 18.98-9.53z" fill="#d7eef4"/><path id="path6516" opacity=".53" fill="url(#radialGradient7775)" d="M345.44 110.62c-11.43 14.034-29.998 20.776-36.765 17.65-6.767-3.128-8.987-21.053 2.442-35.087s32.178-18.863 38.945-15.736c6.767 3.127 6.806 19.138-4.623 33.173z" transform="matrix(.60425 0 0 .6064 -113.957 19.088)"/><path id="path6516-9" d="M372.99 79.083c-27.024 28.976-74.86 47.728-93.656 44.713-18.797-3.015-29.097-33.81-2.073-62.787s81.14-45.16 99.937-42.145c18.797 3.015 22.818 31.242-4.206 60.218z" fill="url(#radialGradient7777)" transform="matrix(.60425 0 0 .6064 -113.957 19.088)"/></g><path id="path7692" opacity=".552" d="M267.68 97.27l-35.95-13.512-26.998 27.312 1.74-38.365-34.317-17.237 37.025-10.2 5.788-37.965 21.142 32.06 37.896-6.226-23.96 30.014z" stroke-opacity=".169" transform="matrix(.53974 0 0 .53048 -71.25 22.04)" stroke="#2c89a0" stroke-width="2.3" fill="#d7eef4"/><path id="path7692-0" opacity=".534" d="M267.68 97.27l-35.95-13.512-26.998 27.312 1.74-38.365-34.317-17.237 37.025-10.2 5.788-37.965 21.142 32.06 37.896-6.226-23.96 30.014z" stroke-opacity=".169" transform="matrix(.36165 .0505 -.0589 .40993 -41.714 53.304)" stroke="#2c89a0" stroke-width="2.3" fill="#d7eef4"/><path id="path7692-9" opacity=".627" d="M267.68 97.27l-35.95-13.512-26.998 27.312 1.74-38.365-34.317-17.237 37.025-10.2 5.788-37.965 21.142 32.06 37.896-6.226-23.96 30.014z" stroke-opacity=".169" transform="matrix(.42984 .4849 -.4834 .4164 21.67 -98.762)" stroke="#2c89a0" stroke-width="2.3" fill="#d7eef4"/><path id="path7692-0-6" opacity=".373" d="M267.68 97.27l-35.95-13.512-26.998 27.312 1.74-38.365-34.317-17.237 37.025-10.2 5.788-37.965 21.142 32.06 37.896-6.226-23.96 30.014z" stroke-opacity=".169" transform="matrix(.23087 .0267 -.0376 .2167 -12.897 102.403)" stroke="#2c89a0" stroke-width="2.3" fill="#d7eef4"/></g></g></svg>