<svg id="svg2" xmlns="http://www.w3.org/2000/svg" height="172.22" width="208.22"><defs id="defs4"><filter id="filter2989" height="1" width="1" color-interpolation-filters="sRGB" y="0" x="0"><feColorMatrix id="feColorMatrix2991" values="0" type="saturate"/></filter></defs><g id="layer15" filter="url(#filter2989)" transform="translate(-523 -23.76)"><g id="g3591"><path id="path3214-1" d="M626.928 31.73C600.733 32 586.23 61.544 590.993 81.89c5.05 21.575 5.464 21.948 18.26 46.378-.653 26.2-53.153 11.54-86.253 67.715l104.288.004v-.045l103.928.002c-33.1-56.176-85.6-41.522-86.253-67.722 12.796-24.427 13.21-24.802 18.26-46.377 4.784-20.438-9.876-50.113-36.295-50.113z" fill="#d7eef4"/><path id="rect3231" d="M623.45 26.5c-7.656.192-17.077 2.14-26.556 11.887-41.368 50.708 42.446 82.088-52.302 111.484l49.732-11.166c7.632-2.23 15.42-3.515 11.182-11.256-9.045-16.518-16.33-34.018-18.035-51.33-2.14-21.743 12.93-47.02 39.046-45.925.047-.002.09 0 .136 0 26.115-1.094 41.14 24.182 39 45.926-1.703 17.31-8.99 34.81-18.035 51.328-4.24 7.74 3.55 9.025 11.182 11.256l49.73 11.167c-94.747-29.395-10.933-60.775-52.3-111.483-10.74-11.04-21.38-12.082-29.49-11.887h-.134a60.796 60.796 0 0 0-3.156 0z" fill="#afdde9"/><path id="path3240" d="M626.51 23.763c-.76-.003-1.543.027-2.255.045-32.124 1.897-43.37 27.387-45.538 54.616-.22 3.578-3.035 24.375-2.48 27.78 3.045 1.456 5.94 3.337 9.514 2.657 4.73 2.94 11.433 6.368 17.9 9.186 13.325 5.806 25.97 6.563 27.73 3.332 2.692-4.942-8.434-6-9.108-1.53-.2 1.33-10.687-1.58-18.532-5-5.66-2.467-10.56-5.19-14.383-7.473.39-.25.812-.54 1.217-.856-.292-1.687 2.23-13.25-3.742-13.508-5.386-.233-4.546-11.142-4.78-14.904-1.677-27.115 15.82-52.335 42.924-52.23.54.006 1.026-.013 1.533 0 .642-.035 1.154-.038 1.803-.045 27.103-.106 44.646 25.16 42.968 52.274-.23 3.763.608 14.672-4.778 14.904-5.97.26-3.45 11.822-3.742 13.51 5.982 4.674 10.04 1.738 14.338-.316.555-3.406-2.26-24.203-2.48-27.78-2.17-27.23-13.46-52.72-45.584-54.616-.813-.02-1.66-.053-2.525-.046z" fill="#5fbcd3"/><path id="rect3543-7" d="M607.94 138.12c-3.155 3.752-6.934 6.826-13.133 7.233l13.95 7.05-1.44 7.166c7.82.58 12.14 9.898 18.048 15.254l.383-.108z" fill="#5fbcd3"/><path id="rect3543-7-9" d="M645.958 138.092c3.156 3.75 6.935 6.825 13.133 7.232l-13.95 7.05 1.443 7.166c-7.82.582-12.142 9.9-18.05 15.255l-.382-.107z" fill="#5fbcd3"/></g></g></svg>